<?xml version="1.0" encoding="UTF-8" standalone="no"?>
<!-- Created with Inkscape (http://www.inkscape.org/) -->

<svg
   width="137.36681mm"
   height="183.65549mm"
   viewBox="0 0 137.36681 183.65549"
   version="1.1"
   id="svg1"
   inkscape:version="1.3 (0e150ed6c4, 2023-07-21)"
   sodipodi:docname="drawing.svg"
   xmlns:inkscape="http://www.inkscape.org/namespaces/inkscape"
   xmlns:sodipodi="http://sodipodi.sourceforge.net/DTD/sodipodi-0.dtd"
   xmlns="http://www.w3.org/2000/svg"
   xmlns:svg="http://www.w3.org/2000/svg">
  <sodipodi:namedview
     id="namedview1"
     pagecolor="#ffffff"
     bordercolor="#000000"
     borderopacity="0.25"
     inkscape:showpageshadow="2"
     inkscape:pageopacity="0.0"
     inkscape:pagecheckerboard="0"
     inkscape:deskcolor="#d1d1d1"
     inkscape:document-units="mm"
     inkscape:zoom="0.99150695"
     inkscape:cx="319.71536"
     inkscape:cy="349.46805"
     inkscape:window-width="1920"
     inkscape:window-height="1001"
     inkscape:window-x="-9"
     inkscape:window-y="-9"
     inkscape:window-maximized="1"
     inkscape:current-layer="layer1" />
  <defs
     id="defs1" />
  <g
     inkscape:label="Layer 1"
     inkscape:groupmode="layer"
     id="layer1"
     transform="translate(-25.049449,-1.2998263)">
    <g
       id="g2"
       style="fill:#ffffff"
       inkscape:export-filename="images\card-bg.png"
       inkscape:export-xdpi="96"
       inkscape:export-ydpi="96"
       transform="matrix(0.8525934,0,0,1,23.941226,0)">
      <path
         sodipodi:type="star"
         style="font-variation-settings:'wght' 600;fill:#fff8f3;fill-opacity:1;stroke:none;stroke-width:2;stroke-linecap:round;stroke-linejoin:round"
         id="path2"
         inkscape:flatsided="true"
         sodipodi:sides="6"
         sodipodi:cx="84.156288"
         sodipodi:cy="89.439644"
         sodipodi:r1="70.646156"
         sodipodi:r2="61.181366"
         sodipodi:arg1="0.52359878"
         sodipodi:arg2="1.0471976"
         inkscape:rounded="0.03"
         inkscape:randomized="0"
         d="m 145.33765,124.76272 c -1.05969,1.83544 -59.061977,35.32308 -61.181362,35.32308 -2.119385,0 -60.121674,-33.48764 -61.181366,-35.32308 -1.059692,-1.83544 -1.059692,-68.810714 0,-70.646155 1.059693,-1.835441 59.061982,-35.323077 61.181366,-35.323077 2.119385,0 60.121672,33.487637 61.181362,35.323078 1.0597,1.835441 1.0597,68.810714 0,70.646154 z"
         inkscape:export-filename="card-bg.svg"
         inkscape:export-xdpi="96"
         inkscape:export-ydpi="96"
         transform="matrix(1.2998263,0,0,1.2998263,-27.53052,-23.128443)" />
      <path
         sodipodi:type="star"
         style="font-variation-settings:'wght' 600;fill:#fff8f3;fill-opacity:1;stroke:#000000;stroke-width:1.69936;stroke-linecap:round;stroke-linejoin:round;stroke-dasharray:none"
         id="path1"
         inkscape:flatsided="true"
         sodipodi:sides="6"
         sodipodi:cx="84.156288"
         sodipodi:cy="89.439644"
         sodipodi:r1="70.646156"
         sodipodi:r2="61.181366"
         sodipodi:arg1="0.52359878"
         sodipodi:arg2="1.0471976"
         inkscape:rounded="0.03"
         inkscape:randomized="0"
         d="m 145.33765,124.76272 c -1.05969,1.83544 -59.061977,35.32308 -61.181362,35.32308 -2.119385,0 -60.121674,-33.48764 -61.181366,-35.32308 -1.059692,-1.83544 -1.059692,-68.810714 0,-70.646155 1.059693,-1.835441 59.061982,-35.323077 61.181366,-35.323077 2.119385,0 60.121672,33.487637 61.181362,35.323078 1.0597,1.835441 1.0597,68.810714 0,70.646154 z"
         inkscape:export-filename="card-bg.svg"
         inkscape:export-xdpi="96"
         inkscape:export-ydpi="96"
         transform="matrix(1.1769162,0,0,1.1769162,-17.186858,-12.135403)" />
    </g>
  </g>
</svg>
